#!OML:ASF G:\JayActor3\Patient Classification 1\Patient 1\Session 6\male.ASF
:FULLY-SPECIFIED
:DEGREES
779
root 3.87314 15.9645 -24.5545 205.884 -80.8902 -209.049
lowerback -1.03972 0.576709 0.722994
upperback -0.301505 0.735588 -3.24329
thorax 0.325952 0.352693 -3.72924
lowerneck -2.99533 -2.74049 -3.22457
upperneck 27.5047 -1.98275 -11.7717
head 9.02136 -2.95654 -3.7633
rclavicle -7.15625e-015 1.43125e-014
rhumerus -35.057 -23.0599 -72.9331
rradius 83.3978
rwrist 18.4851
rhand -26.1144 -22.0104
rfingers 7.12502
rthumb 0.435229 -51.9897
lclavicle -7.15625e-015 1.43125e-014
lhumerus -49.7788 36.6246 50.3002
lradius 22.6604
lwrist 18.8191
lhand -20.3444 9.10824
lfingers 7.12502
lthumb 6.00736 39.0031
rfemur -19.1284 3.7295 15.7032
rtibia 49.8488
rfoot -27.9332 -17.1872
rtoes -4.72179
lfemur -2.56364 15.1566 -20.5174
ltibia 27.7734
lfoot -6.91315 -33.9568
ltoes 25.5974
780
root 3.86746 15.969 -24.5887 206.9 -81.4679 -210.076
lowerback -0.996054 0.581949 0.735306
upperback -0.216141 0.74588 -3.18455
thorax 0.389103 0.360308 -3.67512
lowerneck -2.92119 -2.82996 -3.28798
upperneck 27.5367 -2.11992 -11.6752
head 9.01468 -3.01302 -3.72798
rclavicle -3.45388e-015 0
rhumerus -35.2207 -23.1991 -73.019
rradius 82.5815
rwrist 18.3618
rhand -25.8117 -22.2053
rfingers 7.12502
rthumb 0.72761 -52.1838
lclavicle -3.45388e-015 0
lhumerus -50.0651 36.5522 50.0741
lradius 22.6292
lwrist 18.9902
lhand -20.3953 9.19231
lfingers 7.12502
lthumb 5.95814 39.0885
rfemur -18.8567 3.33366 15.965
rtibia 49.662
rfoot -28.0874 -17.2546
rtoes -4.39952
lfemur -2.56299 14.671 -20.2849
ltibia 27.7611
lfoot -6.88823 -33.9562
ltoes 25.5047
781
root 3.86181 15.9734 -24.6228 207.944 -82.0277 -211.136
lowerback -0.957633 0.592446 0.752361
upperback -0.125512 0.763259 -3.12014
thorax 0.461036 0.37161 -3.61767
lowerneck -2.84671 -2.91915 -3.34368
upperneck 27.5639 -2.25775 -11.5787
head 9.00622 -3.0687 -3.6937
rclavicle -2.47238e-014 1.98785e-015
rhumerus -35.3617 -23.3551 -73.1019
rradius 81.7534
rwrist 18.1975
rhand -25.6432 -22.4431
rfingers 7.12502
rthumb 0.890357 -52.4209
lclavicle -2.47238e-014 1.98785e-015
lhumerus -50.3203 36.446 49.922
lradius 22.6362
lwrist 19.1925
lhand -20.4381 9.27657
lfingers 7.12502
lthumb 5.91682 39.174
rfemur -18.5855 2.95949 16.2339
rtibia 49.4688
rfoot -28.2328 -17.3261
rtoes -4.07458
lfemur -2.56145 14.1685 -20.0526
ltibia 27.7519
lfoot -6.91232 -33.9168
ltoes 25.3623
782
root 3.85618 15.9776 -24.6567 208.971 -82.5741 -212.185
lowerback -0.920133 0.606755 0.780926
upperback -0.0297179 0.785695 -3.04834
thorax 0.539135 0.38559 -3.55898
lowerneck -2.77564 -3.00497 -3.39158
upperneck 27.5924 -2.39164 -11.4812
head 8.99907 -3.12184 -3.66026
rclavicle -1.47101e-014 -3.97569e-016
rhumerus -35.4805 -23.5414 -73.1769
rradius 80.9154
rwrist 17.9926
rhand -25.5805 -22.7306
rfingers 7.12502
rthumb 0.950947 -52.7082
lclavicle -1.47101e-014 -3.97569e-016
lhumerus -50.5541 36.3052 49.8385
lradius 22.6853
lwrist 19.4284
lhand -20.4522 9.35023
lfingers 7.12502
lthumb 5.90328 39.248
rfemur -18.308 2.60387 16.5171
rtibia 49.2658
rfoot -28.3656 -17.4016
rtoes -3.76116
lfemur -2.55745 13.6587 -19.8093
ltibia 27.7535
lfoot -6.97668 -33.8503
ltoes 25.1802
783
root 3.85032 15.9815 -24.6904 209.976 -83.1207 -213.224
lowerback -0.88184 0.620338 0.826915
upperback 0.0744033 0.807135 -2.96606
thorax 0.625307 0.399326 -3.4993
lowerneck -2.71073 -3.0876 -3.43596
upperneck 27.622 -2.52146 -11.3811
head 8.99386 -3.17265 -3.62644
rclavicle 5.7896e-015 -3.02153e-014
rhumerus -35.594 -23.7532 -73.2336
rradius 80.0922
rwrist 17.7663
rhand -25.5019 -23.0639
rfingers 7.12502
rthumb 1.02681 -53.0411
lclavicle 5.7896e-015 -3.02153e-014
lhumerus -50.7794 36.1781 49.7802
lradius 22.7513
lwrist 19.623
lhand -20.4017 9.3922
lfingers 7.12502
lthumb 5.95203 39.2886
rfemur -18.0129 2.2575 16.82
rtibia 49.0496
rfoot -28.4958 -17.4693
rtoes -3.43552
lfemur -2.54829 13.1465 -19.5449
ltibia 27.7704
lfoot -7.05647 -33.774
ltoes 24.9857
784
root 3.84448 15.9853 -24.7241 210.935 -83.6703 -214.222
lowerback -0.844982 0.633066 0.891577
upperback 0.182412 0.827228 -2.87277
thorax 0.716245 0.412576 -3.43879
lowerneck -2.65667 -3.16701 -3.47342
upperneck 27.6581 -2.64636 -11.2811
head 8.99319 -3.22108 -3.59414
rclavicle -5.85172e-015 -3.97569e-015
rhumerus -35.7046 -23.9942 -73.2707
rradius 79.2854
rwrist 17.551
rhand -25.3387 -23.3271
rfingers 7.12502
rthumb 1.18444 -53.3035
lclavicle -5.85172e-015 -3.97569e-015
lhumerus -50.9771 36.0302 49.7879
lradius 22.8504
lwrist 19.8763
lhand -20.3559 9.43383
lfingers 7.12502
lthumb 5.99619 39.329
rfemur -17.708 1.92813 17.1493
rtibia 48.819
rfoot -28.6238 -17.5357
rtoes -3.10073
lfemur -2.54304 12.6368 -19.255
ltibia 27.8018
lfoot -7.16132 -33.6913
ltoes 24.7554
785
root 3.83862 15.9891 -24.758 211.972 -84.2368 -215.307
lowerback -0.809716 0.637834 0.967529
upperback 0.297784 0.836499 -2.76873
thorax 0.814884 0.420622 -3.37369
lowerneck -2.62751 -3.24808 -3.50073
upperneck 27.7084 -2.76967 -11.1922
head 9.00208 -3.27013 -3.56885
rclavicle 9.88954e-015 -1.11319e-014
rhumerus -35.8099 -24.2669 -73.2869
rradius 78.499
rwrist 17.393
rhand -25.0035 -23.4295
rfingers 7.12502
rthumb 1.50819 -53.404
lclavicle 9.88954e-015 -1.11319e-014
lhumerus -51.1623 35.8998 49.825
lradius 22.9702
lwrist 20.148
lhand -20.3212 9.46735
lfingers 7.12502
lthumb 6.02972 39.3615
rfemur -17.3861 1.6057 17.4999
rtibia 48.5736
rfoot -28.7604 -17.5963
rtoes -2.72783
lfemur -2.53728 12.1335 -18.9394
ltibia 27.8432
lfoot -7.2575 -33.6228
ltoes 24.5203
786
root 3.83282 15.9931 -24.7923 213.368 -84.8181 -216.757
lowerback -0.772962 0.6325 1.03744
upperback 0.413669 0.831897 -2.66238
thorax 0.912167 0.421596 -3.30307
lowerneck -2.63594 -3.33005 -3.51867
upperneck 27.7882 -2.88985 -11.1084
head 9.02843 -3.31955 -3.54952
rclavicle -1.22625e-014 1.07344e-014
rhumerus -35.9278 -24.5559 -73.2929
rradius 77.7565
rwrist 17.2978
rhand -24.5319 -23.4167
rfingers 7.12502
rthumb 1.96364 -53.3874
lclavicle -1.22625e-014 1.07344e-014
lhumerus -51.3242 35.758 49.9097
lradius 23.113
lwrist 20.4694
lhand -20.3092 9.50189
lfingers 7.12502
lthumb 6.04129 39.3958
rfemur -17.0539 1.2871 17.8521
rtibia 48.315
rfoot -28.9123 -17.6499
rtoes -2.3017
lfemur -2.53693 11.6289 -18.6194
ltibia 27.8886
lfoot -7.32797 -33.5704
ltoes 24.2972
787
root 3.82708 15.9973 -24.8271 215.224 -85.4112 -218.673
lowerback -0.737603 0.618306 1.10211
upperback 0.535183 0.815174 -2.55146
thorax 1.01508 0.416497 -3.22501
lowerneck -2.6713 -3.41494 -3.52939
upperneck 27.8845 -3.01075 -11.0306
head 9.06559 -3.37043 -3.5354
rclavicle 1.68967e-015 -1.19271e-014
rhumerus -36.0581 -24.8478 -73.29
rradius 77.0676
rwrist 17.2808
rhand -23.969 -23.3118
rfingers 7.12502
rthumb 2.50727 -53.2768
lclavicle 1.68967e-015 -1.19271e-014
lhumerus -51.4616 35.6117 50.0407
lradius 23.2755
lwrist 20.8326
lhand -20.3209 9.53439
lfingers 7.12502
lthumb 6.02997 39.4286
rfemur -16.709 0.980957 18.2103
rtibia 48.0443
rfoot -29.0767 -17.7088
rtoes -1.82859
lfemur -2.53515 11.1227 -18.2921
ltibia 27.9335
lfoot -7.38698 -33.5305
ltoes 24.0535
